<svg xmlns="http://www.w3.org/2000/svg" width="1280" height="480" viewBox="0 0 1280 480">
  <rect width="1280" height="480" fill="#ffffff"/>
  <text x="32" y="44" font-family="Arial, sans-serif" font-size="26" font-weight="700" fill="#111827">Manage page links row (form structure fixed)</text>
  <text x="32" y="78" font-family="Arial, sans-serif" font-size="18" fill="#374151">Update form is now fully contained in Actions cell; title/url inputs use form=&quot;update-link-*&quot;.</text>

  <rect x="32" y="110" width="1216" height="62" fill="#f9fafb" stroke="#111827" stroke-width="2"/>
  <rect x="32" y="172" width="1216" height="208" fill="#ffffff" stroke="#111827" stroke-width="2"/>

  <line x1="120" y1="110" x2="120" y2="380" stroke="#111827" stroke-width="2"/>
  <line x1="430" y1="110" x2="430" y2="380" stroke="#111827" stroke-width="2"/>
  <line x1="830" y1="110" x2="830" y2="380" stroke="#111827" stroke-width="2"/>
  <line x1="1030" y1="110" x2="1030" y2="380" stroke="#111827" stroke-width="2"/>

  <text x="62" y="149" font-family="Arial, sans-serif" font-size="20" font-weight="700" fill="#111827">#</text>
  <text x="245" y="149" font-family="Arial, sans-serif" font-size="20" font-weight="700" fill="#111827">Title</text>
  <text x="615" y="149" font-family="Arial, sans-serif" font-size="20" font-weight="700" fill="#111827">URL</text>
  <text x="892" y="149" font-family="Arial, sans-serif" font-size="20" font-weight="700" fill="#111827">Created</text>
  <text x="1110" y="149" font-family="Arial, sans-serif" font-size="20" font-weight="700" fill="#111827">Actions</text>

  <text x="62" y="258" font-family="Arial, sans-serif" font-size="20" fill="#111827">1</text>
  <rect x="148" y="220" width="260" height="44" rx="4" fill="#f3f4f6" stroke="#9ca3af"/>
  <text x="160" y="248" font-family="Arial, sans-serif" font-size="16" fill="#111827">title input (form=update-link-42)</text>
  <rect x="448" y="220" width="360" height="44" rx="4" fill="#f3f4f6" stroke="#9ca3af"/>
  <text x="460" y="248" font-family="Arial, sans-serif" font-size="16" fill="#111827">url input (form=update-link-42)</text>
  <text x="872" y="248" font-family="Arial, sans-serif" font-size="18" fill="#111827">2026-05-17</text>

  <rect x="1060" y="216" width="84" height="50" rx="6" fill="#111827"/>
  <text x="1092" y="247" font-family="Arial, sans-serif" font-size="28" fill="#ffffff">✓</text>
  <rect x="1158" y="216" width="64" height="50" rx="6" fill="#111827"/>
  <text x="1181" y="248" font-family="Arial, sans-serif" font-size="26" fill="#ffffff">🗑</text>

  <rect x="1036" y="286" width="196" height="74" fill="#ecfeff" stroke="#0891b2" stroke-width="2" rx="8"/>
  <text x="1048" y="314" font-family="Arial, sans-serif" font-size="14" fill="#0c4a6e">form#update-link-42</text>
  <text x="1048" y="338" font-family="Arial, sans-serif" font-size="14" fill="#0c4a6e">method=POST</text>
  <text x="1048" y="358" font-family="Arial, sans-serif" font-size="14" fill="#0c4a6e">action=/links/update/42</text>
</svg>
